<svg xmlns="http://www.w3.org/2000/svg" viewBox="0 0 64 64" fill="none">
  <defs>
    <linearGradient id="mgt-grad" x1="6" y1="6" x2="58" y2="58" gradientUnits="userSpaceOnUse">
      <stop offset="0" stop-color="#00E5FF"></stop>
      <stop offset="0.55" stop-color="#8B6CFF"></stop>
      <stop offset="1" stop-color="#FF3D8A"></stop>
    </linearGradient>
    <filter id="mgt-glow" x="-50%" y="-50%" width="200%" height="200%">
      <feGaussianBlur stdDeviation="1.6" result="b"></feGaussianBlur>
      <feMerge><feMergeNode in="b"></feMergeNode><feMergeNode in="SourceGraphic"></feMergeNode></feMerge>
    </filter>
  </defs>
  
  <rect x="2" y="2" width="60" height="60" rx="16" fill="#0A0C13" stroke="url(#mgt-grad)" stroke-width="1.5"></rect>
  
  <path d="M14 40 A18 18 0 0 1 50 40" stroke="url(#mgt-grad)" stroke-width="2.5" stroke-linecap="round" fill="none" filter="url(#mgt-glow)"></path>
  
  <g stroke="#B6BCCC" stroke-width="1.2" stroke-linecap="round" opacity="0.45">
    <line x1="14.5" y1="40" x2="17" y2="40"></line>
    <line x1="17.3" y1="32.8" x2="19.6" y2="33.7"></line>
    <line x1="22.7" y1="26.7" x2="24.6" y2="28.3"></line>
    <line x1="29" y1="22.5" x2="30.2" y2="24.7"></line>
    <line x1="34.5" y1="22.5" x2="33.8" y2="24.7"></line>
    <line x1="41.3" y1="26.7" x2="39.4" y2="28.3"></line>
    <line x1="46.7" y1="32.8" x2="44.4" y2="33.7"></line>
    <line x1="49.5" y1="40" x2="47" y2="40"></line>
  </g>
  
  <line x1="32" y1="40" x2="44" y2="26" stroke="#00E5FF" stroke-width="2.5" stroke-linecap="round" filter="url(#mgt-glow)"></line>
  <circle cx="32" cy="40" r="2.5" fill="#F4F6FB"></circle>
  <circle cx="32" cy="40" r="1" fill="#00E5FF"></circle>
</svg>